<svg width="800" height="800" viewBox="0 0 800 800" fill="none" xmlns="http://www.w3.org/2000/svg">
<path d="M541.027 517.255L541.026 517.245C537.981 443.277 478.98 383.681 405.773 380.691C325.031 377.397 258.881 444.236 258.881 525.92V641.002C258.881 680.892 290.758 713.281 330.197 713.498H644.066C682.96 713.498 714.504 681.63 714.504 642.291V393.098C714.504 372.61 705.762 353.078 690.508 339.571L446.456 123.217C419.888 99.6645 380.141 99.6643 353.573 123.217L109.522 339.632C94.2682 353.138 85.5254 372.641 85.5254 393.161V642.443C85.5254 667.94 98.8232 690.315 118.785 702.864H118.786C131.944 711.126 140.314 725.332 140.255 740.982V744.666C140.135 777.424 105.91 799.039 77.0869 784.212C31.6252 760.817 0.5 713.081 0.5 657.974V353.727C0.5 333.521 9.12102 314.261 24.1592 300.946H24.1602L335.145 25.209C372.26 -7.73587 427.799 -7.73611 464.945 25.209L775.84 300.915L775.841 300.916C790.879 314.231 799.5 333.459 799.5 353.695V660.704C799.5 737.37 738.037 799.5 662.22 799.5H330.533C269.506 799.5 216.674 764.231 190.771 712.773V712.772C179.909 691.236 173.765 666.854 173.765 641.002V526.381C173.765 399.501 276.455 293.526 401.923 294.598C523.796 295.639 622.932 394.663 626.022 517.399V517.402C626.083 519.378 626.176 521.325 626.176 523.28V544.915C626.176 577.481 600.046 603.891 567.848 603.892H382.318C359.349 603.892 339.549 586.041 338.529 562.878C337.449 538.208 356.898 517.887 381.013 517.887H540.406C540.601 517.887 540.752 517.793 540.845 517.7C540.937 517.607 541.027 517.456 541.027 517.266V517.255Z" fill="#F1722F" stroke="black"/>
</svg>
