<svg width="1160" height="1179" viewBox="0 0 1160 1179" fill="none" xmlns="http://www.w3.org/2000/svg">
<path d="M67.9099 493.819L587.848 86.7561L1091.91 493.819" stroke="#F1722F" stroke-width="135.814" stroke-linecap="round"/>
<path d="M603.91 754.756C798.91 496.756 1055.91 548.15 1055.91 824.15C1055.91 925.06 1055.91 1045.78 1055.91 1090.74C1055.91 1100.74 1047.9 1108.76 1037.9 1108.76C984.984 1108.76 827.968 1108.76 736.288 1108.76C652.108 1095.48 706.556 1072.56 706.556 1072.56" stroke="#F1722F" stroke-width="135.814" stroke-linecap="round"/>
<path d="M484.654 638.45C329.863 480.148 99.6618 602.586 99.6618 806.345C99.6618 915.357 99.6618 1045.69 99.6618 1092.73C99.6618 1102.73 107.627 1110.76 117.628 1110.76C183.922 1110.76 412.451 1110.76 440.995 1110.76C500.53 1110.76 520.313 1105.49 571.91 960.756" stroke="#F1722F" stroke-width="135.814" stroke-linecap="round"/>
<rect x="909.336" y="204.352" width="142.884" height="180.917" fill="#F1722F"/>
</svg>
